<svg xmlns="http://www.w3.org/2000/svg" width="512" height="512" viewBox="0 0 512 512" version="1.1">
	<path d="M 250.636 37.014 C 250.350 38.381, 249.593 44.675, 248.952 51 C 248.312 57.325, 246.939 67.450, 245.901 73.500 C 243.378 88.205, 243.398 88.413, 247.750 92.459 L 251.500 95.946 248.684 95.973 C 245.024 96.008, 244.755 96.160, 222.657 110.694 C 198.112 126.838, 195.109 128.459, 185 131.012 C 170.460 134.686, 159.829 142.065, 158.444 149.444 C 157.113 156.544, 158.592 159.991, 166.019 167.094 L 172.915 173.689 173.906 187.594 C 174.451 195.242, 176.497 224, 178.453 251.500 C 180.409 279, 183.132 316.350, 184.505 334.500 C 188.235 383.810, 188.384 382.475, 178.352 389.748 C 167.406 397.683, 163.995 403.860, 164.010 415.718 C 164.017 421.763, 164.541 424.616, 166.354 428.500 C 169.080 434.338, 178.874 443.842, 187.375 448.899 C 194.110 452.906, 209.246 458.213, 220.500 460.514 C 231.710 462.806, 253.569 463.924, 267.815 462.934 C 323.647 459.054, 357.239 429.489, 340.030 399.374 C 338.419 396.555, 335.166 392.774, 332.801 390.973 C 327.728 387.109, 324.195 383.300, 323.031 380.438 C 322.558 379.274, 323.003 360.773, 324.055 337.938 C 326.279 289.649, 328.646 235.821, 330.056 201.500 C 330.621 187.750, 331.297 175.600, 331.558 174.500 C 331.820 173.400, 334.292 170.925, 337.051 169 C 347.215 161.908, 350.689 152.286, 345.739 144.940 C 341.158 138.143, 332.693 133.466, 316 128.509 C 312.202 127.381, 303.592 122.230, 288.180 111.864 C 274.435 102.619, 264.568 96.642, 262.496 96.306 L 259.132 95.760 262.109 93.255 C 264.855 90.944, 265.036 90.393, 264.446 86.125 C 262.978 75.510, 254.131 39.982, 251.967 36.014 C 251.338 34.861, 251.040 35.085, 250.636 37.014 M 247 103.911 C 247 104.412, 238.207 114.141, 227.459 125.530 C 216.712 136.920, 207.037 147.967, 205.959 150.079 C 203.657 154.593, 203.400 161.951, 205.411 165.800 C 212.803 179.950, 237.663 180.963, 245.590 167.437 C 248.163 163.045, 249.145 158.537, 252.499 135.700 C 253.452 129.209, 254.386 124.053, 254.575 124.241 C 254.763 124.430, 255.646 131.090, 256.536 139.042 C 259.566 166.088, 261.690 172.248, 269.351 176.206 C 281.400 182.432, 302.547 174.918, 306.070 163.160 C 307.065 159.839, 306.946 158.687, 305.214 154.900 C 303.246 150.598, 285.441 129.442, 272.054 115.500 C 268.358 111.650, 264.531 107.263, 263.552 105.750 C 261.873 103.159, 261.343 103, 254.385 103 C 250.323 103, 247 103.410, 247 103.911 M 301.902 184.431 C 301.665 184.668, 296.303 185.593, 289.986 186.487 C 275.123 188.589, 275.570 188.414, 277.514 191.381 C 281.130 196.900, 291.225 197.242, 301.205 192.184 C 305.422 190.047, 306.564 188.940, 306.816 186.750 C 307.084 184.426, 306.761 184, 304.733 184 C 303.413 184, 302.139 184.194, 301.902 184.431 M 206.176 188.085 C 206.467 191.109, 207.006 191.640, 211.500 193.328 C 214.250 194.362, 218.783 195.273, 221.573 195.353 C 225.743 195.474, 227.314 194.992, 230.389 192.649 C 232.447 191.081, 233.871 189.538, 233.552 189.219 C 233.234 188.901, 228.817 188.089, 223.737 187.415 C 218.657 186.740, 212.554 185.859, 210.176 185.455 L 205.852 184.721 206.176 188.085 M 219.718 202.044 C 214.390 203.365, 210.997 205.311, 207.301 209.165 C 200.647 216.101, 200.533 216.834, 200.190 254.875 L 199.879 289.249 205.690 288.792 C 208.885 288.541, 213.651 287.304, 216.280 286.043 C 222.048 283.278, 230.019 276.287, 233.999 270.502 L 236.915 266.263 232.707 267.724 C 222.806 271.161, 209.041 265.227, 207.845 257.007 C 207.538 254.903, 208.145 254.447, 213.290 252.910 C 226.593 248.938, 241.029 232.273, 246.922 214.085 C 250.383 203.402, 250.366 203.370, 240.750 202.584 C 236.213 202.214, 230.475 201.729, 228 201.508 C 225.525 201.287, 221.798 201.528, 219.718 202.044 M 266.829 201.916 C 262.611 202.237, 258.960 202.725, 258.717 203 C 257.502 204.377, 261.561 218.556, 265.444 226.500 C 272.884 241.720, 284.506 251.691, 296.022 252.736 C 301.573 253.239, 301.997 253.447, 301.424 255.391 C 300.602 258.179, 296.074 263.857, 292.615 266.435 C 290.330 268.139, 288.374 268.500, 281.423 268.500 C 276.457 268.500, 273.010 268.910, 273.024 269.500 C 273.077 271.587, 280.174 280.091, 285.138 284.015 C 291.883 289.346, 296.036 291, 302.683 291 L 308.121 291 307.810 257.250 L 307.500 223.500 304.696 217.500 C 301.330 210.299, 296.913 205.411, 291.500 202.900 C 287.325 200.963, 282.081 200.754, 266.829 201.916 M 304.500 301.051 C 300.636 305.170, 289.355 310.626, 282.853 311.520 L 277.778 312.218 283.608 318.109 L 289.437 324 277.219 324 L 265 324 265.017 330.250 C 265.060 345.617, 270.313 358.322, 280.605 367.950 L 286.898 373.837 284.199 375.668 C 282.027 377.143, 278.866 377.598, 268 378 C 249.962 378.668, 256.724 379.974, 278.300 379.989 C 290.523 379.998, 294.767 379.655, 297.050 378.474 C 300.844 376.512, 300.764 376.176, 296.531 376.296 C 294.623 376.350, 292.764 376.097, 292.401 375.734 C 292.037 375.371, 291.686 368.419, 291.620 360.287 C 291.514 347.202, 291.793 344.488, 294.043 336.709 C 296.620 327.801, 298 326.455, 298 332.853 C 298 334.789, 298.955 339.776, 300.123 343.936 C 301.759 349.764, 302.115 353.076, 301.672 358.365 L 301.097 365.231 304.174 364.615 C 305.866 364.277, 307.644 364, 308.125 364 C 309.105 364, 309.111 322.869, 308.133 307.676 L 307.500 297.853 304.500 301.051 M 200 330.315 C 200 347.652, 200.273 362.548, 200.607 363.418 C 200.956 364.329, 202.378 365, 203.957 365 L 206.700 365 206.233 357.730 C 205.882 352.256, 206.290 348.595, 207.883 342.916 C 209.047 338.767, 210 334.190, 210 332.745 C 210 328.083, 211.852 328.812, 212.503 333.731 C 212.851 336.354, 214.062 341.650, 215.194 345.500 C 216.792 350.930, 217.215 354.948, 217.083 363.417 C 216.988 369.422, 216.680 374.709, 216.397 375.167 C 216.114 375.625, 213.771 376.003, 211.191 376.007 L 206.500 376.013 209.500 378 C 212.206 379.792, 214.118 379.978, 229 379.894 C 249.240 379.780, 255.528 378.457, 238.500 377.896 C 228.472 377.565, 226.053 377.171, 223.781 375.500 C 222.286 374.400, 221.065 373.275, 221.068 373 C 221.070 372.725, 223.398 370.925, 226.241 369 C 237.794 361.177, 242 351.148, 242 331.425 L 242 319.060 238.360 321.530 C 235.167 323.697, 233.634 324, 225.860 324 C 219.561 324, 217 323.648, 217 322.781 C 217 322.111, 219.282 319.253, 222.070 316.429 L 227.140 311.295 222.148 310.704 C 216.365 310.019, 208.603 306.347, 203.537 301.898 L 200 298.793 200 330.315 M 305 370 C 303.718 370.828, 303.754 370.972, 305.250 370.985 C 306.212 370.993, 307 370.550, 307 370 C 307 368.780, 306.887 368.780, 305 370 M 311.448 403.755 C 300.890 412.946, 281.781 418.807, 259.423 419.711 C 242.296 420.404, 232.266 419.115, 218.060 414.396 C 207.341 410.836, 203.310 408.816, 196.704 403.699 C 194.616 402.082, 192.798 400.926, 192.664 401.129 C 192.531 401.333, 190.976 403.203, 189.210 405.285 C 185.348 409.838, 184.880 415.651, 187.969 420.716 C 194.722 431.792, 225.790 441.977, 252.872 441.994 C 274.852 442.008, 303.280 435.245, 313.271 427.624 C 323.348 419.938, 324.788 411.620, 317.550 402.909 L 315.397 400.318 311.448 403.755" stroke="none" fill="black" fill-rule="evenodd"/>
</svg>