<svg xmlns="http://www.w3.org/2000/svg" version="1.1" xmlns:xlink="http://www.w3.org/1999/xlink" xmlns:svgjs="http://svgjs.dev/svgjs" width="1440" height="560" preserveAspectRatio="none" viewBox="0 0 1440 560">
    <g mask="url(&quot;#SvgjsMask1016&quot;)" fill="none">
        <circle r="5.69" cx="356.65" cy="123.64" filter="url(#SvgjsFilter1017)" fill="rgba(165, 9, 9, 0.39)"></circle>
        <circle r="8.895" cx="145.345" cy="212.905" filter="url(#SvgjsFilter1017)" fill="rgba(165, 9, 9, 0.39)"></circle>
        <circle r="8.875" cx="936.685" cy="329.605" filter="url(#SvgjsFilter1017)" fill="rgba(47, 117, 9, 0.2)"></circle>
        <circle r="5.87" cx="976.24" cy="163.91" filter="url(#SvgjsFilter1017)" fill="rgba(165, 9, 9, 0.39)"></circle>
        <circle r="8.945" cx="451.895" cy="245.555" filter="url(#SvgjsFilter1017)" fill="rgba(47, 117, 9, 0.2)"></circle>
        <circle r="7.865" cx="24.845" cy="46.795" filter="url(#SvgjsFilter1017)" fill="rgba(47, 117, 9, 0.2)"></circle>
        <circle r="7.66" cx="896.0899999999999" cy="408.33000000000004" filter="url(#SvgjsFilter1017)" fill="rgba(165, 9, 9, 0.39)"></circle>
        <circle r="7.735" cx="1385.175" cy="301.40500000000003" filter="url(#SvgjsFilter1017)" fill="rgba(47, 117, 9, 0.2)"></circle>
        <circle r="8.99" cx="323.7" cy="346.42" filter="url(#SvgjsFilter1017)" fill="rgba(165, 9, 9, 0.39)"></circle>
        <circle r="5" cx="746" cy="450.75" filter="url(#SvgjsFilter1017)" fill="rgba(165, 9, 9, 0.39)"></circle>
        <circle r="6.985" cx="872.585" cy="144.79500000000002" filter="url(#SvgjsFilter1017)" fill="rgba(47, 117, 9, 0.2)"></circle>
        <circle r="8.57" cx="333.42" cy="454.06" filter="url(#SvgjsFilter1017)" fill="rgba(165, 9, 9, 0.39)"></circle>
        <circle r="5.88" cx="1030.8100000000002" cy="365.53" filter="url(#SvgjsFilter1017)" fill="rgba(47, 117, 9, 0.2)"></circle>
        <circle r="5.995" cx="975.805" cy="209.85500000000002" filter="url(#SvgjsFilter1017)" fill="rgba(165, 9, 9, 0.39)"></circle>
        <circle r="6.87" cx="1051.76" cy="490.8" filter="url(#SvgjsFilter1017)" fill="rgba(165, 9, 9, 0.39)"></circle>
        <circle r="6.365" cx="428.685" cy="193.965" filter="url(#SvgjsFilter1017)" fill="rgba(165, 9, 9, 0.39)"></circle>
        <circle r="8.06" cx="294.86" cy="405.3" filter="url(#SvgjsFilter1017)" fill="rgba(47, 117, 9, 0.2)"></circle>
        <circle r="5.63" cx="520.15" cy="68.33" filter="url(#SvgjsFilter1017)" fill="rgba(47, 117, 9, 0.2)"></circle>
        <circle r="4.98" cx="401.59000000000003" cy="299.20000000000005" filter="url(#SvgjsFilter1017)" fill="rgba(47, 117, 9, 0.2)"></circle>
        <circle r="7.7" cx="280.15999999999997" cy="77.06" filter="url(#SvgjsFilter1017)" fill="rgba(165, 9, 9, 0.39)"></circle>
        <path d="M1414.8 422.6L1376.3 458.9 1361.7 458.9 1346 430.2 1353.6 417.3 1405.3 405.2C1405.9 404.9 1405.9 404.9 1406.4 404.6 1407.5 404 1408.4 402.8 1408 400.8 1407.1 399.1 1405.9 398.3 1403.9 398.7L1358.8 409.4 1370.7 389.8 1390.5 384.8C1390.5 384.8 1391.1 384.5 1391.1 384.5 1392.2 383.9 1393 382.7 1392.7 380.7 1392.6 379.3 1390.6 378.2 1388.6 378.6L1375.5 381.3 1384.5 367C1385.3 365.8 1384.9 363.8 1383.4 362.4S1379.7 362.3 1378.3 363.8L1370 377.8 1366.6 365C1366.3 363 1364.2 362 1362.2 362.3 1361.1 362.9 1359.7 364.4 1360.1 366.4L1365.1 386.3 1352.6 406.2 1341.9 361.1C1341.5 359.1 1339.5 358 1338 358 1336.3 359 1335 360.4 1335.3 362.4L1348 413.8 1339.9 427 1308.1 426.1 1300.7 412.6 1315.2 361.7C1315.8 360 1314.8 358.3 1313.1 357.8S1309.7 358.2 1309.2 359.9L1296.5 404.8 1285.1 384 1290.7 364.9C1291.2 363.2 1290.3 361.5 1288.3 360.4S1284.9 360.8 1284.3 362.5L1280.8 376.1 1272.5 361C1271.6 359.3 1269.3 359.1 1267.6 360 1266 360.9 1265.4 362.6 1266.4 364.3L1274.6 379.5 1261.6 375.7C1259.6 374.6 1257.9 375.5 1257.7 377.8 1257.2 379.5 1258.1 381.2 1259.8 381.7L1278.9 387.4 1290.3 408.1 1245.7 394.6C1243.9 394.1 1241.7 395.3 1241.2 397S1241.6 400.4 1243.3 400.9L1294.6 416 1301.9 429.5 1284.9 457 1269.9 456.4 1233.6 417.9C1232.1 416.5 1230.2 416.9 1228.5 417.8 1227.1 419.3 1227.4 421.3 1228.4 423L1260.5 456.5 1237.6 455.9 1223.6 440.9C1222.1 439.5 1220.1 439.9 1218.4 440.8 1217.6 442 1217.4 444.3 1218.9 445.6L1227.8 455.3 1210.9 455.1C1209.5 455.1 1208.1 456.6 1207.6 458.4 1207.9 460.4 1209.4 461.7 1210.8 461.7L1227.8 461.9 1217.8 471.7C1217 472.9 1216.8 475.2 1217.9 476 1218.9 477.7 1220.3 477.7 1222 476.7 1222 476.7 1222.5 476.4 1222.5 476.4L1237.5 462.4 1260.4 463.1 1226.9 495.2C1225.6 496.7 1225 498.4 1226.5 499.8 1228 501.2 1229.4 501.1 1230.6 500.5 1231.1 500.2 1231.1 500.2 1231.1 500.2L1269.9 463 1284.8 463.6 1300.4 492.3 1292.6 504.6 1240.6 517.6C1239.2 517.7 1238.1 519.7 1238.2 521.1 1238.5 523.1 1240.6 524.2 1242.6 523.8L1287.7 513.1 1275.8 532.7 1255.9 537.7C1254 538 1252.6 539.5 1253.5 541.2 1253.9 543.2 1255.9 544.3 1257.3 544.2L1270.7 540.6 1261.7 554.9C1261.2 556.7 1261.6 558.7 1263 560.1 1263.9 560.3 1265.3 560.3 1266.5 559.6 1267 559.3 1267 559.3 1267.3 558.5L1276.2 544.1 1279.8 557.4C1280.2 559.4 1281.9 560 1283.4 559.9 1283.9 559.6 1283.9 559.6 1284.5 559.3 1285.6 558.7 1286.4 557.5 1286.4 556.1L1281.4 536.2 1293.3 516.6 1304.1 561.7C1305 563.4 1306.5 564.8 1308.1 563.9 1309 564.1 1309 564.1 1309.6 563.8 1310.7 563.2 1311.2 561.5 1311.2 560.1L1298.1 508.1 1306 495.8 1338.4 496.4 1345.4 509.3 1330.4 560.5C1329.9 562.3 1331.1 564.5 1332.8 565S1336.8 564.3 1337.3 562.6L1350 517.7 1361.1 537.9 1355.8 557.6C1355.2 559.3 1356.2 561 1357.9 561.5 1359.6 562 1361.3 561.1 1361.8 559.4L1365.7 546.4 1373.9 561.5C1374.5 562.7 1376.6 563.7 1378.3 562.8 1380 561.9 1380.7 559.3 1380.1 558.2L1371.8 543 1384.9 546.8C1385.7 547.1 1386.6 547.3 1387.2 547 1388.3 546.4 1388.5 545.5 1388.8 544.7 1389.3 542.9 1388.4 541.3 1386.7 540.7L1367.2 534.6 1356.2 514.3 1400.8 527.9C1401.7 528.2 1402.2 527.9 1403.4 527.3 1403.9 527 1404.5 526.7 1404.7 525.8 1405.2 524 1404 521.8 1402.3 521.3L1351.6 505.9 1344.6 493 1361.1 465.8 1376.2 465.5 1412.9 504.6C1414 505.4 1415.8 505.9 1416.9 505.3 1417.5 505 1417.5 505 1417.1 504.4 1418.8 503.5 1419 501.2 1417.6 499.8L1385.4 466.3 1408.9 466.6 1422.9 481.6C1424.1 482.4 1425.5 482.4 1426.6 481.8 1426.6 481.8 1427.2 481.4 1427.2 481.4 1428.9 480.5 1429.1 478.2 1427.6 476.9L1417.8 466.9 1434.7 467.1C1435.6 467.4 1436.1 467.1 1436.7 466.8 1437.8 466.2 1438.7 465 1438.3 464.4 1438.5 462.1 1437.1 460.8 1435.3 460.2L1418.4 460 1428.1 451.1C1429.5 449.6 1429.7 447.3 1428.2 445.9 1427.1 445.1 1424.8 444.9 1423.9 446.1L1409 460 1386 459.4 1419.5 427.3C1420.9 425.8 1420.6 423.8 1419.7 422.1 1418.5 421.3 1416.2 421.1 1414.8 422.6ZM1341.7 437L1353.7 458.9 1355.5 462.2 1353.6 465.5 1340.9 486.2 1338.4 489.8 1334.7 489.6 1310.3 489.1 1306.6 488.9 1304.8 485.5 1292.8 463.6 1291 460.2 1292.9 457 1305.6 436.2 1307.5 433 1311.8 432.9 1336.1 433.4 1339.9 433.6 1341.7 437Z" fill="rgba(165, 9, 9, 0.39)"></path>
        <path d="M724.7 249.9L736 233.9 741.4 244.4C741.8 245.5 743.5 246.2 745.2 245.8 746.4 244.7 747.1 243.1 746 241.9L739.7 228.5 748 215.6 761.1 243.6C762.1 244.8 763.8 245.4 764.9 245 766.7 244 767.3 242.3 766.3 241.1L751.7 210.3 764.9 191.1 773.7 216.4 786.1 192.6 796.4 213.6 777.5 241.9C776.9 241.9 776.9 242.5 776.8 243 776.8 244.1 777.2 245.3 778.3 245.9 779.4 246.6 781.1 246.1 782.3 245.1L799.3 219.4 805.6 233.3 797.4 245.6C796.8 246.2 796.8 246.7 796.7 247.3 796.7 247.8 797.2 249 798.3 249.6 799.3 250.3 801.1 249.8 801.7 248.8L808.6 239.2 817.4 256.6C817.8 258.4 819.5 258.5 821.2 258 822.4 257.6 823.1 255.9 822.1 254.2L813.8 236.7 825.5 237.6C827.2 237.7 828.4 236.1 828.5 235 828.6 233.3 827.6 232.1 825.9 232L810.9 230.9 804.6 217 834.7 219.2C836.4 219.3 837.6 218.3 837.7 216.6 837.8 215.5 836.8 213.7 835.1 213.6L801.6 211.1 791.4 190.2 817.4 194.9 803.3 172.5 826.8 174.2 841.4 204.5C842.4 206.2 844.1 206.4 845.2 205.9 846.4 205.4 847.1 203.8 846.6 202.1L832.9 174.7 848 175.8 854.9 189.2C855.3 190.9 857 191.6 858.7 190.6 859.9 190.1 860.6 188.5 859.6 186.7L854.7 176.3 874.3 177.7C875.9 177.8 877.1 176.8 877.2 175.1S876.3 172.2 874.7 172.1L855.1 170.7 861.4 161C862.7 159.4 862.2 157.7 861.2 157.1 859.6 155.8 857.8 156.3 857.2 157.9L848.4 170.2 833.3 169.1 850.9 144C851.6 142.3 851.1 140.6 850 140 848.5 138.8 846.7 139.2 846.1 140.8L827.2 168.6 803.7 166.9 820.9 146.8 794.5 147.7 807.7 128.5 841.2 130.9C842.8 131 844.1 129.4 844.2 128.3 844.3 126.7 843.2 125.5 841.6 125.3L810.9 123.1 819.6 110.3 834.7 111.4C836.4 111.5 837.6 110.4 837.7 108.8 837.8 107.7 836.8 105.9 835.1 105.8L823.4 104.9 834.1 88.9C835.4 87.3 834.9 85.5 833.3 84.9 832.2 84.2 830.5 84.1 829.9 85.7L818.6 101.8 813.2 91.3C812.7 90.1 811.1 89.4 809.9 89.9 808.7 90.4 808.1 91.5 808.1 92 808 92.6 808 93.1 808.5 93.7L814.8 107.1 806.6 120 793.5 92.1C792.4 90.9 790.8 90.2 789.6 90.7 788.5 91.1 787.8 92.2 787.8 93.3 787.7 93.9 787.7 93.9 788.2 94.5L802.8 125.3 789.6 144.6 780.8 119.2 768.4 143 758.1 122.1 777.1 93.7C777.7 92.6 777.8 90.9 776.2 89.7 775.2 89 773.4 89.5 772.2 90.5L755.2 116.2 748.9 102.3 757.1 90C758.3 88.9 757.9 87.2 756.3 86 755.2 85.3 753.5 85.8 752.3 86.8L746 96.5 737.1 79C736.7 77.3 735 77.1 733.3 77.6 732.7 78.1 732.1 79.2 732 79.7 732 80.3 732 80.8 732.5 81.4L740.7 98.9 729 98C727.3 97.9 726.1 99.5 726 100.6L726 100.6C725.9 102.3 726.9 103.5 728.6 103.6L743.7 104.7 750 118.7 719.8 116.5C718.1 116.3 716.9 117.4 716.8 119S717.7 121.9 719.4 122L752.9 124.5 763.2 145.4 737.1 140.7 751.2 163.1 727.8 161.4 713.1 131.1C712.1 129.4 710.5 129.3 709.3 129.7 708.1 130.2 707.5 131.8 707.9 133.6L721.1 160.9 706.5 159.8 699.7 146.4C699.2 144.7 697.6 144 695.8 145 694.7 145.5 694 147.1 694.4 148.9L699.8 159.4 680.3 157.9C678.6 157.8 677.4 158.8 677.3 160.5S678.2 163.4 679.9 163.5L699.4 164.9 693.1 174.6C692.5 175.1 692.5 175.7 692.4 176.2 692.4 177.3 692.9 177.9 693.4 178.5 695 179.8 696.7 179.3 697.4 177.7L706.1 165.4 721.2 166.5 703.7 191.6C703.6 192.2 703.6 192.8 703.5 193.3 703.5 194.4 704 195 704.5 195.6 706.1 196.9 707.8 196.4 708.5 194.8L727.4 167 750.8 168.7 733.6 188.8 760.1 187.9 746.9 207.1 713.4 204.7C711.7 204.6 710.5 206.2 710.4 207.3 710.3 209 711.3 210.2 713 210.3L743.1 212.5 734.9 225.4 719.8 224.3C718.1 224.1 716.9 225.2 716.8 226.9S717.7 229.7 719.4 229.8L731.1 230.7 720.4 246.8C719.8 247.3 719.8 247.8 719.7 248.4 719.7 249 720.2 250.1 721.3 250.8 722.3 251.4 724 251.5 724.7 249.9ZM745.9 182.9L760 166.5 748.4 148.3 770 152.1 779.8 133.2 787.3 153.4 808.7 152.7 794.6 169.1 806.2 187.3 785.1 183.5 774.7 202.4 767.8 182.3 745.9 182.9Z" fill="rgba(47, 117, 9, 0.2)"></path>
        <path d="M161.3 318.5L205.1 292.2 223.1 297.1 208.3 305.9C206.4 306.4 206.3 308.4 206.8 310.3 207.8 311.3 210 312.1 211.1 311.1L231.7 299.3 249.5 303.6 236.5 316.5 212.6 316.6C212.6 316.6 212 316.8 212 316.8 210.8 317.2 209.9 318.7 209.6 320.1 210.1 322 211.1 323 213.1 323.1L230.4 322.9 217.4 335.9 166.5 337C166.5 337 165.7 336.5 165.7 336.5 164.5 336.9 163.6 338.5 163.3 339.9 163.2 341.9 165 343.4 166.8 342.9L211.2 342.3 195.9 358.6 176 358.9C176 358.9 176 358.9 175.4 359.1 174.2 359.4 173.1 360.4 172.8 361.8 173.3 363.6 174.5 365.3 176.5 365.4L189.7 365 178.4 376.8C176.7 378 177.3 379.8 178.2 380.9 179.4 382.5 181.4 382.6 182.9 380.9L194.3 369.7 193.9 382.4C194.5 384.3 195.6 385.9 197.5 385.4 199.5 385.5 200.5 384.6 200.6 382.5L200.3 362.7 215.9 347 216.6 392C216.3 393.4 218.1 394.9 220.1 395 221.3 394.6 223 393.5 223.1 391.5L222 340.6 235 327.6 235.2 344.8C235.1 346.9 236.7 347.7 238.7 347.8 240.1 348.1 241.6 346.4 241.9 344.9L241.2 321.2 254 307.6 259 325.5 247.5 346C246.6 347.6 247.2 349.4 248.7 350.3 249.7 351.4 252.2 350.7 253 349.1L261.4 334.1 266.5 352 241.1 396.4C240.2 398 240.7 399.8 242.3 400.7 243.9 401.6 245.8 401 246.6 399.5L268.9 360.6 274.8 381.5 265.1 398.9C264.2 400.5 264.7 402.3 266.3 403.2 267.9 404.1 269.7 403.6 270.6 402L277.4 390.8 281.8 406.2C282.3 408 283.9 408.9 285.7 408.4 287.6 407.9 288.5 406.3 287.9 404.4L283.6 389 294.7 395.2C296.2 396.1 298.1 395.6 299 394S299.3 390.6 297.7 389.7L281.2 380.4 275.1 358.9 313.8 380.5C315.4 381.4 317.2 380.9 318.1 379.3 319 377.7 318.4 375.9 316.9 375L272.6 350.2 267.6 332.4 282.6 340.8C284.2 341.7 286 341.1 286.9 339.6 287.8 338 287.3 336.1 285.7 335.2L265.2 323.8 260.3 306.5 277.5 311 289.9 331.4C290.9 332.4 293.1 333.2 294.2 332.2 295.8 331.1 296.1 329.7 295.6 327.8L286.7 313 304 317.5 330.3 361.2C331.4 362.9 332.8 363.2 334.7 362.7 336.3 361.5 336.4 359.5 336.1 358.3L313.2 319.5 334.8 325.4 344.8 341.9C345.3 343.7 347.3 343.8 349.1 343.3 350.2 342.3 350.9 340.1 349.8 338.4L343.4 327.6 359 331.2C360.6 332.1 362.3 330.9 363 328.7 363.3 327.3 362.1 325.6 360.7 325.4L344.9 321.2 356.4 314.6C358 313.5 358.1 311.5 357.2 310.4 356.6 308.6 355.2 308.3 354 308.7 353.4 308.8 353.4 308.8 352.8 309L336.3 319 314.7 313.1 352.8 290.4C354.7 289.8 354.8 287.8 354.3 286 353.3 284.9 351.9 284.6 350.7 285 350 285.2 350 285.2 350 285.2L305.5 311 288.3 306.6 303.1 297.8C304.7 296.6 305 295.2 304.5 293.4 303.5 292.3 301.9 291.4 300.7 291.8 300.1 292 300.1 292 299.5 292.1L279 304.5 261.8 300.1 274.2 287.3 297.9 286.6C299.9 286.7 301.4 284.9 301.7 283.5 301.2 281.7 300 280 298.2 280.5L281 280.7 293.1 267.3 344.8 266.7C346.2 267 347.7 265.2 348 263.8 347.5 262 346.3 260.3 344.3 260.2L299.9 260.7 315.4 245.1 334.7 244.9C336.7 245 338.2 243.3 337.7 241.4 338 240 336.8 238.4 334.8 238.3L321.6 238.7 332.9 226.8C334 225.9 334.1 223.8 332.9 222.2 332.1 221.7 330.7 221.5 329.5 221.8 329.5 221.8 328.9 222 328.3 222.2L317 234 316.6 220.8C316.8 219.4 315.1 217.9 313.7 217.6 313.1 217.8 313.1 217.8 313.1 217.8 311.2 218.3 310.3 219.9 310.7 221.1L310.8 240.4 295.5 256.7 294.7 211.7C294.2 209.8 293.2 208.8 291.2 208.7 291.2 208.7 290.6 208.8 290.6 208.8 289.4 209.2 288.3 210.2 288.2 212.2L288.7 263.3 276.3 276.1 276.1 258.8C275.6 257 274.4 255.3 272.6 255.8 272.4 255.2 271.8 255.4 271.8 255.4 270.6 255.7 269.7 257.3 269.4 258.7L270.1 282.4 257.2 295.4 252.3 278.2 263.8 257.6C264.7 256.1 264 253.6 262.4 252.7 261 252.4 259.2 253 258.1 253.9L249.9 269.5 244.8 251.7 269.6 207.5C270.5 205.9 270 204 268.4 203.1 266.8 202.3 264.9 202.8 264.1 204.4L242.4 243.1 236.3 221.5 245.6 204.9C246.5 203.3 246 201.5 244.4 200.6S241 200.2 240.1 201.8L233.9 212.9 229.5 197.5C229 195.6 227.4 194.8 225.6 195.3 223.7 195.8 222.9 197.4 223.4 199.2L227.7 214.6 216 208.6C215.3 208.2 214.5 207.7 213.9 207.9 213.2 208.1 212.2 209 211.7 209.8 210.9 211.4 211.4 213.2 213 214.1L230.2 223.2 236.2 244.8 196.9 223.3C196.1 222.9 195.3 222.4 194.7 222.6 194.1 222.8 193.1 223.7 192.6 224.5 191.7 226.1 192.2 228 193.8 228.8L238.7 253.4 243.7 271.3 228.5 262.3C227.7 261.8 226.5 262.2 225.9 262.3 225.3 262.5 224.7 262.7 224.2 263.5 223.3 265.1 224 267.5 225.4 267.8L246.1 279.9 251 297.2 233.2 292.9 221.4 272.3C220.4 271.2 218.8 270.3 217.6 270.7 217 270.8 217 270.8 217.2 271.5 215.3 272 214.6 274.2 215.7 275.9L224.6 290.7 206.7 286.4 180.9 241.8C179.9 240.7 178.5 240.5 177.3 240.8 176.6 241 176.6 241 176.6 241 175 242.1 174.1 243.7 175.2 245.4L198.1 284.1 176.5 278.3 166.6 261.8C165.4 260.1 164 259.9 162.8 260.2 162.8 260.2 162.2 260.4 162.2 260.4 160.5 261.5 160.4 263.5 160.7 264.8L167.9 276.1 152.1 271.9C151.5 272 150.9 272.2 150.3 272.4 149.6 272.6 148.6 273.5 148.1 274.3 148 276.3 148.6 278.2 150.6 278.3L166.4 282.5 155 289C153.3 290.2 153.2 292.2 153.5 293.4 154.7 295.1 156.7 295.2 158.5 294.7L175 284.7 196.4 289.9 158.3 312.7C156.6 313.8 155.9 316 156.9 317.1 158 318.7 159.6 319.6 161.3 318.5Z" fill="rgba(47, 117, 9, 0.2)"></path>
        <path d="M858.8 435.6L841.9 446.3 840.8 432.9C840.8 431.4 839.4 430 837.4 429.7 835.7 430.3 834.2 431.7 834.2 433.1L835.3 450.9 819.4 460.8 817.7 424.7C817.4 422.4 816 421 814.3 421.6 812.3 421.3 810.8 422.7 811.1 425L813.1 464.8 799 474.1 764.2 456.4 763.2 441.6 799.1 418.9C799.4 418.3 799.7 417.7 800 417.2 800.3 416.6 800.3 415.2 800 414.3 798.9 412.3 796.9 412 795.4 413.4L762.7 434.1 761.9 415.8 778.3 404.7C778.9 405 779.2 404.4 779.4 403.9 780 402.7 780 401.3 779.2 400.2 778.3 399 776.3 398.7 774.6 399.3L761.4 408.3 760.1 385.4C760.1 384 758.7 382.6 756.7 382.3 755 382.8 753.5 384.3 753.5 385.7L754.8 407.2 742.8 401.1C741.1 400.2 739.1 401.3 738.5 402.5 737.7 404.2 737.9 406.5 739.6 407.4L755 415.2 755.8 433.5 723.8 417.3C722.1 416.4 720.4 417 719.5 418.7 718.7 420.4 719.2 422.1 720.9 423L756.3 440.9 757.6 456.7 724.6 478 711.5 471.3 709.2 430.6C709.5 428.6 707.5 426.9 705.7 427.5 703.7 427.2 702.9 428.9 702.6 430.9L704.6 467.8 688.1 459.4 687.3 441.1C687.3 439.7 685.4 437.9 683.9 437.9S680.8 439.9 680.5 441.9L681.2 455.9 661.3 445.8C659.5 444.9 657.5 446.1 656.7 447.8 656.1 448.9 656.4 451.2 658.1 452.1L678 462.2 666 470.4C664.8 471.3 664 473 665.1 475 665.9 476.2 668.5 476.7 669.7 475.9L684.9 465.7 701.4 474.1 670.4 494.2C669 495.6 668.1 497.4 669.2 499.4 670.1 500.5 672.7 501.1 673.8 500.3L708.3 477.6 721.4 484.2 723.7 523.5 710.2 531.7 674.9 513.7C673.2 512.8 671.4 513.4 670.6 515.1 669.7 516.8 670 519.1 671.7 520L703.6 536.2 688.4 546.4 673 538.6C671.3 537.7 669.6 538.3 668.7 540 667.8 541.7 668.4 543.4 670.1 544.3L682.1 550.4 664 562C662.8 562.9 662.2 565.4 663.1 566.6 664.5 568 666.2 568.9 667.7 567.5L686.6 555.6 687.4 571C688 572.8 689.4 574.2 690.8 574.2 692.2 574.2 693.4 573.4 694 572.2 694 572.2 694.3 571.6 694 570.8L693.2 551 708.5 540.8 711.1 579.5C710.8 581.5 712.2 582.9 714.5 582.6 715.4 582.4 716.2 582.1 716.8 580.9 717.1 580.4 717.4 579.8 717.7 579.2L714.8 536.9 727.4 528.9 762.2 546.6 763 563.5 729.7 585.3C727.7 586.5 727.4 588.5 728.8 589.9 729.3 591.6 731.3 591.9 733.3 590.8L763.5 570.9 764.8 589.5 749.9 599.2C748.7 600 748.4 602 749 603.8 750.4 605.2 752.1 606.1 753.6 604.6L765.1 597.6 766.4 617.6C766.1 619.6 767.8 620.5 769.8 620.8 770.7 620.5 771.8 619.6 772.4 618.5 772.4 618.5 772.7 617.9 773 617.4L771.7 595.9 785.9 603.1C787.1 603.7 789.4 603.4 790.2 601.7 791.1 600 790 598 788.8 597.4L771.1 588.4 769.8 569.8 804.6 587.5C806.3 588.4 808.4 587.2 809.2 585.5S809.5 582.1 807.8 581.2L769.6 561.8 768.8 546.3 801.9 525.1 816.7 532.6 818.7 573.8C819.3 575.6 820.7 577 822.7 577.3 823.6 577 824.7 576.2 825.3 575 825.6 574.5 825.9 573.9 825.6 573L823.6 536.1 840.1 544.5 841.4 563.1C841.4 564.5 842.8 566 844.8 566.3 846.6 565.7 848 564.3 848 562.9L847 548 865.2 557.3C866.4 557.8 868.9 557 869.5 555.8 870.4 554.1 869.5 551.6 868.4 551L850.1 541.7 862.5 534.3C862.8 533.8 863.1 533.2 863.4 532.6 863.9 531.5 864 530.1 863.7 529.2 862.3 527.8 860.3 527.5 858.5 528L843.3 538.2 826.7 529.8 857.8 509.7C859.8 508.6 860.1 506.6 859.2 505.4 858.1 503.4 856.1 503.1 854.4 503.7L819.9 526.3 805.1 518.8 802.7 479.6 815.7 471.1 853.9 490.5C855.6 491.4 857.3 490.8 858.2 489.1 859.1 487.4 858.5 485.7 856.8 484.8L822 467.1 837.8 457.2 855.5 466.2C856.6 466.8 859.2 465.9 860.1 464.2 860.9 462.5 859.8 460.5 858.7 459.9L844.4 452.6 862.5 441C862.8 440.5 862.8 440.5 863.1 439.9 863.7 438.7 863.7 437.3 863.4 436.5 862 435 860 434.7 858.8 435.6ZM798.2 515.3L798.2 519.6 795 521.6 768.3 538.9 765.1 540.9 761.7 539.1 733.8 525 730.3 523.2 730.1 519.5 728.3 487.7 728 484 731.4 481.4 757.9 464.7 761.3 462.2 764.8 463.9 792.7 478.1 796.1 479.8 796.1 484.1 798.2 515.3Z" fill="rgba(47, 117, 9, 0.2)"></path>
        <path d="M1208 217.3L1188.1 184.6 1191.7 171.1 1198.4 182.1C1198.8 183.5 1200.3 183.6 1201.7 183.2 1202.5 182.5 1203 180.8 1202.3 180L1193.4 164.6 1196.5 151.2 1206.3 160.9 1206.4 178.8C1206.4 178.8 1206.6 179.3 1206.6 179.3 1206.8 180.2 1208 180.9 1209.1 181.1 1210.4 180.7 1211.2 180 1211.3 178.4L1211.1 165.5 1220.9 175.2 1221.8 213.4C1221.8 213.4 1221.5 214 1221.5 214 1221.7 214.9 1222.9 215.5 1224 215.7 1225.5 215.8 1226.6 214.5 1226.2 213.1L1225.7 179.8 1237.9 191.3 1238.2 206.2C1238.2 206.2 1238.2 206.2 1238.4 206.6 1238.6 207.6 1239.3 208.3 1240.4 208.5 1241.8 208.1 1243 207.3 1243.1 205.8L1242.8 195.9 1251.7 204.3C1252.5 205.6 1253.9 205.2 1254.7 204.4 1256 203.6 1256 202.1 1254.7 201L1246.3 192.4 1255.8 192.6C1257.2 192.2 1258.4 191.4 1258.1 190 1258.1 188.5 1257.4 187.7 1255.9 187.6L1241 187.9 1229.2 176.3 1262.9 175.6C1264 175.8 1265.1 174.5 1265.2 173 1264.9 172.1 1264 170.8 1262.5 170.7L1224.3 171.7 1214.6 162 1227.5 161.8C1229 161.9 1229.7 160.7 1229.7 159.2 1229.9 158.1 1228.6 157 1227.6 156.8L1209.8 157.4 1199.5 147.9 1212.9 144 1228.4 152.6C1229.5 153.2 1230.9 152.8 1231.6 151.7 1232.4 150.9 1231.8 149.1 1230.7 148.4L1219.4 142.2 1232.8 138.3 1266.1 157.2C1267.3 157.9 1268.7 157.5 1269.4 156.3 1270 155.1 1269.6 153.7 1268.4 153.1L1239.2 136.5 1254.9 132 1268 139.2C1269.2 139.9 1270.5 139.5 1271.2 138.3 1271.9 137.1 1271.5 135.7 1270.3 135.1L1261.8 130 1273.4 126.7C1274.7 126.3 1275.4 125.1 1275 123.7 1274.6 122.3 1273.4 121.7 1272 122.1L1260.5 125.4 1265.1 117.1C1265.8 115.9 1265.4 114.5 1264.2 113.8S1261.6 113.6 1261 114.8L1254 127.2 1237.9 131.9 1254 102.8C1254.7 101.6 1254.3 100.2 1253.1 99.5 1251.9 98.9 1250.5 99.3 1249.9 100.5L1231.4 133.7 1218.1 137.6 1224.3 126.3C1225 125.1 1224.6 123.7 1223.4 123 1222.2 122.4 1220.8 122.8 1220.2 124L1211.6 139.4 1198.7 143.1 1202 130.2 1217.3 120.8C1218 120.1 1218.6 118.4 1217.8 117.6 1217 116.4 1215.9 116.2 1214.5 116.6L1203.5 123.3 1206.8 110.3 1239.5 90.5C1240.8 89.6 1241 88.5 1240.6 87.2 1239.7 85.9 1238.2 85.8 1237.3 86.1L1208.3 103.4 1212.6 87.2 1224.9 79.7C1226.3 79.3 1226.4 77.7 1226 76.4 1225.3 75.6 1223.6 75 1222.4 75.9L1214.3 80.7 1216.9 69C1217.5 67.8 1216.7 66.5 1215 66 1214 65.8 1212.7 66.7 1212.5 67.7L1209.4 79.6 1204.5 71C1203.6 69.8 1202.1 69.7 1201.3 70.4 1199.9 70.8 1199.7 71.9 1200 72.8 1200.1 73.3 1200.1 73.3 1200.3 73.7L1207.8 86.1 1203.5 102.3 1186.3 73.8C1185.9 72.4 1184.4 72.3 1183 72.7 1182.2 73.4 1182 74.5 1182.3 75.4 1182.4 75.9 1182.4 75.9 1182.4 75.9L1201.9 109.2 1198.7 122.1 1192 111.1C1191.1 109.8 1190.1 109.6 1188.7 110 1187.9 110.7 1187.2 111.9 1187.5 112.9 1187.6 113.3 1187.6 113.3 1187.8 113.8L1197.1 129.1 1193.9 142 1184.2 132.8 1183.6 115C1183.7 113.4 1182.4 112.3 1181.3 112.1 1179.9 112.5 1178.7 113.4 1179.1 114.8L1179.3 127.7 1169.2 118.6 1168.6 79.8C1168.8 78.8 1167.4 77.7 1166.4 77.5 1165 77.9 1163.7 78.7 1163.7 80.2L1164.2 113.5 1152.4 101.9 1152.3 87.5C1152.3 86 1151 84.9 1149.6 85.3 1148.6 85.1 1147.3 85.9 1147.3 87.4L1147.6 97.3 1138.7 88.9C1138 88.1 1136.5 88 1135.2 88.9 1134.9 89.5 1134.7 90.5 1134.9 91.5 1134.9 91.5 1135.1 91.9 1135.2 92.4L1144.1 100.8 1134.2 101.2C1133.2 101 1132.1 102.3 1131.9 103.3 1132 103.8 1132 103.8 1132 103.8 1132.4 105.2 1133.6 105.8 1134.5 105.6L1148.9 105.4 1161.2 116.9 1127.4 117.6C1126.1 118 1125.3 118.7 1125.2 120.2 1125.2 120.2 1125.3 120.7 1125.3 120.7 1125.6 121.6 1126.3 122.4 1127.8 122.5L1166.2 122 1175.8 131.2 1162.9 131.4C1161.5 131.8 1160.2 132.7 1160.6 134 1160.2 134.2 1160.3 134.6 1160.3 134.6 1160.6 135.6 1161.7 136.2 1162.8 136.4L1180.6 135.8 1190.4 145.5 1177.5 149.2 1162 140.6C1160.8 140 1159 140.5 1158.3 141.7 1158.1 142.7 1158.5 144.1 1159.2 144.9L1171 151 1157.6 154.9 1124.4 136.4C1123.2 135.8 1121.8 136.2 1121.1 137.4 1120.5 138.6 1120.9 139.9 1122.1 140.6L1151.1 156.7 1135 161.4 1122.5 154.4C1121.3 153.8 1120 154.2 1119.3 155.4S1119 157.9 1120.2 158.6L1128.5 163.2 1117 166.5C1115.6 166.9 1115 168.1 1115.4 169.5 1115.8 170.9 1116.9 171.5 1118.3 171.1L1129.9 167.8 1125.4 176.6C1125.1 177.2 1124.7 177.8 1124.9 178.2 1125 178.7 1125.7 179.5 1126.3 179.8 1127.5 180.5 1128.9 180.1 1129.5 178.9L1136.3 166 1152.5 161.3 1136.5 190.9C1136.1 191.5 1135.8 192.1 1135.9 192.5 1136.1 193 1136.8 193.8 1137.4 194.1 1138.6 194.8 1140 194.4 1140.6 193.2L1158.9 159.5 1172.3 155.7 1165.6 167.1C1165.3 167.7 1165.5 168.6 1165.7 169 1165.8 169.5 1165.9 170 1166.5 170.3 1167.7 171 1169.6 170.4 1169.8 169.4L1178.8 153.8 1191.7 150.1 1188.5 163.5 1173.1 172.4C1172.3 173.1 1171.7 174.3 1171.9 175.2 1172.1 175.7 1172.1 175.7 1172.5 175.6 1172.9 177 1174.6 177.5 1175.8 176.6L1186.9 170 1183.7 183.3 1150.4 202.9C1149.6 203.6 1149.4 204.7 1149.7 205.6 1149.8 206 1149.8 206 1149.8 206 1150.7 207.3 1151.8 208 1153.1 207.1L1182.1 189.8 1177.8 206 1165.4 213.5C1164.2 214.4 1164 215.5 1164.2 216.4 1164.2 216.4 1164.4 216.8 1164.4 216.8 1165.2 218.1 1166.8 218.2 1167.7 217.9L1176.1 212.5 1173 224.4C1173.2 224.8 1173.3 225.3 1173.4 225.7 1173.6 226.2 1174.3 227 1174.9 227.3 1176.4 227.4 1177.8 227 1177.8 225.5L1180.9 213.6 1185.9 222.2C1186.7 223.4 1188.3 223.5 1189.2 223.2 1190.4 222.4 1190.5 220.8 1190.1 219.5L1182.6 207.1 1186.4 191 1203.6 219.6C1204.5 220.8 1206.1 221.4 1206.9 220.6 1208.2 219.8 1208.8 218.6 1208 217.3Z" fill="rgba(165, 9, 9, 0.39)"></path>
        <path d="M1454.4 65.1L1444.6 67.4 1446.4 60.9C1446.6 60.2 1446.2 59.3 1445.3 58.8 1444.4 58.8 1443.5 59.2 1443.2 59.9L1440.7 68.4 1431.6 70.5 1436.8 53.2C1437.1 52 1436.6 51.1 1435.7 51.1 1434.9 50.6 1433.9 51 1433.7 52.2L1428 71.3 1419.8 73.3 1406.3 59.2 1408.3 52 1429 47.3C1429.3 47.1 1429.5 46.9 1429.7 46.6 1430 46.4 1430.2 45.7 1430.2 45.3 1430 44.2 1429.1 43.7 1428.2 44.1L1409.3 48.4 1412 39.6 1421.6 37.2C1421.8 37.4 1422.1 37.2 1422.3 36.9 1422.8 36.5 1423 35.8 1422.8 35.1 1422.6 34.5 1421.7 34 1420.8 34L1413 36 1416.3 25C1416.5 24.4 1416.1 23.4 1415.2 23 1414.3 22.9 1413.4 23.4 1413.1 24L1410.1 34.4 1405.5 29.5C1404.8 28.8 1403.7 29 1403.2 29.4 1402.5 30.1 1402.3 31.2 1403 31.9L1408.9 38.2 1406.2 47 1393.9 34C1393.2 33.3 1392.3 33.2 1391.6 33.9 1390.9 34.6 1390.9 35.5 1391.5 36.2L1405.2 50.5 1403.2 58.2 1384.1 62.7 1379 57.4 1384.7 37.8C1385.2 36.9 1384.5 35.8 1383.6 35.7 1382.7 35.3 1382 35.9 1381.6 36.8L1376.4 54.6 1370 47.8 1372.7 39.1C1372.9 38.4 1372.3 37.3 1371.6 37S1369.8 37.4 1369.3 38.3L1367.3 45.1 1359.6 36.9C1358.9 36.2 1357.8 36.4 1357.1 37.1 1356.6 37.5 1356.4 38.7 1357 39.4L1364.8 47.5 1357.7 49.3C1357 49.6 1356.3 50.2 1356.5 51.4 1356.7 52 1357.8 52.7 1358.5 52.5L1367.4 50.3 1373.8 57 1355.8 61.3C1354.9 61.7 1354.2 62.4 1354.4 63.5 1354.6 64.2 1355.7 64.9 1356.4 64.7L1376.4 59.8 1381.5 65.1 1376.1 84 1368.3 85.6 1354.7 71.2C1354 70.5 1353.1 70.5 1352.4 71.2 1351.7 71.8 1351.4 73 1352.1 73.6L1364.4 86.6 1355.6 88.9 1349.6 82.6C1349 81.9 1348 81.9 1347.4 82.6 1346.7 83.2 1346.6 84.1 1347.3 84.8L1351.9 89.7 1341.4 92.2C1340.8 92.4 1340.1 93.5 1340.3 94.2 1340.7 95.1 1341.4 95.8 1342.3 95.4L1353.2 92.9 1351 100.3C1351 101.2 1351.4 102.1 1352.1 102.4 1352.7 102.6 1353.4 102.4 1353.9 102 1353.9 102 1354.1 101.8 1354.1 101.3L1357.1 91.9 1366 89.6 1360.7 108.3C1360.3 109.2 1360.7 110.1 1361.8 110.3 1362.3 110.3 1362.7 110.4 1363.2 109.9 1363.4 109.7 1363.6 109.5 1363.9 109.3L1369.6 88.8 1376.9 87.2 1390.3 101.3 1387.9 109.4 1368.5 114.1C1367.4 114.3 1366.9 115.2 1367.3 116.1 1367.3 117 1368.2 117.5 1369.3 117.3L1386.9 113 1384.4 122 1375.7 124C1375 124.3 1374.6 125.1 1374.5 126 1375 127 1375.6 127.7 1376.6 127.2L1383.2 125.8 1380.4 135.5C1379.9 136.4 1380.6 137.1 1381.5 137.5 1381.9 137.6 1382.6 137.3 1383.1 136.9 1383.1 136.9 1383.3 136.7 1383.6 136.5L1386.5 126.1 1392 131.9C1392.5 132.4 1393.6 132.6 1394.3 132 1395 131.3 1394.8 130.2 1394.4 129.7L1387.5 122.5 1390 113.5 1403.5 127.7C1404.1 128.4 1405.3 128.2 1406 127.5S1406.7 126 1406 125.3L1391.3 109.7 1393.5 102.3 1412.6 97.8 1418.3 103.8 1412.4 123.6C1412.4 124.5 1412.8 125.4 1413.7 125.9 1414.2 125.9 1414.8 125.7 1415.3 125.3 1415.5 125.1 1415.8 124.8 1415.8 124.4L1421 106.6 1427.4 113.4 1424.9 122.3C1424.6 123 1425.1 123.9 1426 124.4 1426.9 124.4 1427.8 124 1428 123.3L1430 116.1 1437.1 123.6C1437.5 124 1438.9 124.1 1439.3 123.6 1440 123 1440.1 121.6 1439.6 121.1L1432.6 113.7 1439.6 112.3C1439.9 112.1 1440.1 111.9 1440.3 111.6 1440.8 111.2 1441 110.5 1441 110.1 1440.6 109.2 1439.7 108.7 1438.8 108.7L1429.9 110.9 1423.5 104.2 1441.5 99.9C1442.7 99.7 1443.1 98.8 1442.9 98.1 1442.7 97 1441.8 96.5 1440.9 96.5L1420.9 101.4 1415.2 95.4 1420.6 76.5 1428.1 74.7 1442.9 90.2C1443.6 90.9 1444.5 90.9 1445.2 90.3 1445.9 89.6 1445.9 88.7 1445.2 88L1431.8 73.9 1440.9 71.8 1447.7 79C1448.2 79.5 1449.5 79.5 1450.2 78.8 1450.9 78.2 1450.7 77 1450.3 76.6L1444.8 70.8 1455.2 68.3C1455.5 68.1 1455.5 68.1 1455.7 67.9 1456.2 67.5 1456.4 66.8 1456.4 66.3 1456 65.4 1455.1 64.9 1454.4 65.1ZM1412.5 92.6L1411.8 94.6 1410 95 1394.5 98.7 1392.7 99.1 1391.3 97.7 1380.5 86.4 1379.2 85 1379.7 83.2 1384.2 67.9 1384.7 66.1 1386.7 65.5 1402 62 1404 61.4 1405.3 62.8 1416.1 74.1 1417.5 75.5 1416.7 77.5 1412.5 92.6Z" fill="rgba(47, 117, 9, 0.2)"></path>
        <path d="M887.7 268.2L920.6 264 943.9 282.2 916.5 293.3 886 280.1C886 280.1 885.6 280 885.6 280 884.8 279.9 883.9 280.6 883.4 281.3 882.9 282.5 883.5 283.8 884.7 283.9L911.3 295.4 898.1 300.8 886.2 295.9C886.2 295.9 885.8 295.8 885.8 295.8 885 295.7 884.1 296.4 883.6 297.1 883.1 298.3 883.7 299.6 884.9 299.7L892.9 303.3 883 307.1C882.2 307.4 881.6 309 881.8 309.8 882.1 311 883.6 311.3 884.5 311L894.3 307.1 890.8 315.1C890.2 316.2 890.8 317.5 892 317.7 893.2 318.3 894.5 317.6 894.6 316.4L899.5 304.6 912.8 299.6 901.3 326.3C900.8 327.4 901.4 328.7 902.6 328.9 903.7 329.4 905 328.8 905.2 327.6L918.4 297.2 945.8 286.1 941.6 315.8 914.9 335.9C914 336.5 913.9 337.7 914.5 338.6 915.2 339.5 916.4 339.7 917.3 339L940.8 321.3 938.8 335.6 928.9 343.1C928 343.8 927.8 344.9 928.5 345.9 929.1 346.8 930.3 346.9 931.2 346.2L938 341.1 936.5 352.2C935.9 353.4 937 354.3 938.2 354.5 939.3 354.7 940.3 354 940.4 352.8L941.9 342.5 947 349.3C947.7 350.2 948.8 350.3 949.7 349.7S950.8 347.8 950.1 346.9L942.6 336.9 944.7 322.7 962.4 346.2C963 347.1 964.2 347.2 965.1 346.6 966 345.9 966.2 344.7 965.5 343.8L945.4 317.1 949.6 287.8 972.8 306 976.8 338.1C977 339.4 978.2 339.9 979.4 340.1 980.6 339.9 981.2 338.7 981.3 337.5L977.7 308.8 989 317.6 990.4 330.3C990.7 331.6 991.8 332.1 993 332.3 994.2 332.1 994.8 330.9 994.9 330.2L993.7 321.5 1002.1 327.9C1002.8 328.4 1004.4 328.7 1005 327.5 1005.5 326.4 1005.7 325.2 1004.6 324.6L996.2 318.2 1004.8 317C1006.1 316.8 1006.6 315.6 1006.7 314.9 1006.5 314 1005.8 313.1 1005 313 1005 313 1004.6 312.9 1004.6 312.9L991.9 314.4 980.6 305.5 1009.4 301.9C1010.6 301.7 1011.2 300.5 1011.3 299.7 1011 298.9 1010.3 298 1009.5 297.9 1009.5 297.9 1009.1 297.8 1009.1 297.8L976.2 302.1 952.9 283.9 980.4 272.8 1010.8 285.9C1012 286.5 1013.3 285.9 1013.4 284.7 1014 283.6 1013.4 282.3 1012.2 282.1L985.5 270.7 998.8 265.3 1010.6 270.2C1011.7 270.7 1013 270.1 1013.2 268.9 1013.8 267.8 1013.2 266.5 1012 266.3L1004 262.8 1013.8 258.9C1014.7 258.6 1015.3 257.1 1015 256.2 1014.7 255.4 1014 254.9 1013.2 254.8 1012.8 254.7 1012.4 254.7 1011.9 255L1002.1 258.9 1005.7 250.9C1006.2 249.7 1005.6 248.4 1004.4 248.3 1004.4 248.3 1004 248.2 1004 248.2 1003.2 248.1 1002.3 248.8 1001.8 249.5L996.9 261.4 983.6 266.8 995.1 240.1C995.6 239 995 237.7 993.8 237.5 993.8 237.5 993.4 237.4 993.4 237.4 992.6 237.3 991.7 238 991.2 238.7L978 269.2 950.6 280.3 954.7 251 981.4 230.9C982.3 230.2 982.5 229 981.8 228.1 981.1 227.2 979.9 227.1 979 227.7L955.6 245 957.6 230.8 967.5 223.3C968.4 222.6 968.6 221.4 967.9 220.5S966 219.5 965.1 220.1L958.4 225.2 959.8 214.9C960 213.8 959.3 212.8 958.1 212.7 956.9 212.5 956 213.2 955.9 214.4L954.4 224.7 949.3 217.9C949 217.5 948.6 217 947.8 216.9S946.6 217.1 946.1 217.5C945.2 218.1 945.1 219.3 945.7 220.2L953.2 230.2 951.2 244.4 933.5 220.9C933.2 220.5 932.8 220 932 219.9 931.7 219.9 930.8 220.1 930.4 220.5 929.4 221.2 929.3 222.4 930 223.3L950 249.9 945.9 279.2 922.6 261 918.4 228.1C918.1 227.2 917.4 226.3 916.6 226.2 916.6 226.2 916.2 226.2 916.2 226.2 915 226.4 914.4 227.5 914.3 228.3L917.9 257.1 906.7 248.3 905.2 235.5C904.9 234.7 904.2 233.8 903.5 233.7 903.5 233.7 903.1 233.6 903.1 233.6 901.8 233.8 901.3 235 901.1 235.8L902.3 244.4 894 238C893.6 237.9 893.2 237.5 892.8 237.4 892 237.3 891.2 237.6 890.7 238.3 890.1 239.5 889.9 240.7 891.1 241.2L899.5 247.7 890.8 248.9C889.6 249.1 889 250.2 888.9 251 889.1 252.3 890.3 252.8 891 252.9L903.8 251.5 915.1 260.3 886.3 264C885 264.2 884.5 265.3 884.3 266.1 885.4 267.5 886.4 268.4 887.7 268.2Z" fill="rgba(47, 117, 9, 0.2)"></path>
        <path d="M528.7 150.9L522.1 182.1 512.2 188.3 514.4 177.7C515 176.7 514.1 175.8 513 175.2 512.1 175.2 510.9 175.9 510.9 176.8L507.5 191.3 497.9 197.6 497.5 186.2 507.7 175.2C507.7 175.2 507.8 174.8 507.8 174.8 508.2 174.1 507.9 173 507.3 172.3 506.3 171.8 505.4 171.7 504.5 172.6L497.2 180.6 496.8 169.2 518 145.4C518 145.4 518.5 145.2 518.5 145.2 518.9 144.5 518.5 143.4 518 142.7 517.1 141.8 515.7 142 515.1 143L496.5 163.6 495.6 149.6 503.9 140.4C503.9 140.4 503.9 140.4 504.1 140.1 504.4 139.4 504.5 138.5 503.9 137.7 502.9 137.2 501.6 137 500.7 137.9L495.3 144.1 494.7 133.9C494.8 132.6 493.8 132.1 492.9 132.1 491.6 131.9 490.7 132.8 490.9 134.2L491.2 144.2 485.5 138.6C484.4 138.1 483.2 137.9 482.6 139 481.7 139.8 481.7 140.7 482.6 141.6L491.8 150 492.4 163.7 471.5 144.9C470.9 144.2 469.5 144.4 468.6 145.3 468.2 146 468 147.2 468.9 148.1L492.7 169.3 493.1 180.7 485.1 173.5C484.2 172.6 483.2 173 482.3 173.8 481.5 174.4 481.7 175.8 482.2 176.5L493.4 186.3 494.2 197.9 483.9 192.6 479.4 178.6C479 177.6 477.9 177 476.9 177.4 476 177.4 475.2 178.8 475.6 179.9L478.9 190.1 468.6 184.8 459 154.3C458.7 153.2 457.6 152.7 456.5 153 455.5 153.3 454.9 154.4 455.3 155.5L463.6 182.2 451.5 176 447.7 164.2C447.3 163.1 446.2 162.6 445.2 162.9 444.1 163.3 443.5 164.3 443.9 165.4L446.1 173.3 437.2 168.7C436.2 168.2 435.1 168.5 434.5 169.6 434 170.7 434.3 171.7 435.4 172.3L444.3 176.8 436.8 179.3C435.7 179.6 435.1 180.7 435.5 181.8S436.9 183.4 438 183L449.3 179.4 461.7 185.8 435.4 194.3C434.3 194.6 433.7 195.7 434.1 196.8 434.4 197.9 435.5 198.4 436.6 198.1L466.7 188.3 477.1 193.6 466.8 196.9C465.7 197.3 465.2 198.4 465.5 199.4 465.9 200.5 467 201.1 468 200.7L482 196.2 492 201.3 482.6 207.3 468 204.3C467.1 204.3 465.8 205 465.8 205.9 465.6 207.1 466.2 207.8 467.2 208.4L477.8 210.6 468.4 216.6 437.2 210.1C435.9 209.9 435.2 210.4 434.7 211.5 434.5 212.7 435.3 213.6 436.1 214L463.5 220 451.7 227.4 439.9 224.9C438.8 224.4 437.9 225.3 437.4 226.3 437.4 227.2 438.1 228.5 439.3 228.7L447 230.4 438.7 236C437.6 236.4 437.4 237.6 438.1 238.9 438.7 239.6 439.9 239.8 440.6 239.2L449.3 233.8 447.4 241.8C447.2 243.1 448.1 244 449 244 450.1 244.5 450.8 244 451.1 243.3 451.3 242.9 451.3 242.9 451.5 242.6L454 230.8 465.8 223.4 460 250.5C459.5 251.6 460.4 252.5 461.4 253.1 462.3 253.1 463 252.5 463.4 251.8 463.6 251.5 463.6 251.5 463.6 251.5L470.7 220.1 480.1 214.1 477.8 224.6C477.6 225.8 478.1 226.6 479.2 227.1 480.1 227.1 481.2 226.8 481.6 226.1 481.7 225.7 481.7 225.7 481.9 225.4L484.9 210.7 494.3 204.7 494.9 215.8 485.1 227C484.2 227.9 484.4 229.3 484.9 230 486 230.6 487.2 230.8 487.8 229.7L495 221.7 496 233 474.3 256.9C473.5 257.5 473.7 258.9 474.2 259.6 475.3 260.2 476.6 260.4 477.5 259.5L496.1 238.9 496.7 252.7 488.5 261.6C487.6 262.4 487.8 263.9 488.9 264.4 489.4 265.1 490.6 265.3 491.5 264.5L497 258.2 497.6 268.5C497.6 269.3 498.5 270.2 499.7 270.4 500.2 270.3 501 269.7 501.3 269 501.3 269 501.5 268.7 501.7 268.3L501.1 258.1 507.3 263.5C507.8 264.3 509.3 264.1 510 263.6 510.2 263.2 510.2 263.2 510.2 263.2 510.7 262.1 510.4 261.1 509.6 260.7L500.8 252.6 499.9 238.6 520.8 257.4C521.8 258 522.7 258 523.6 257.1 523.6 257.1 523.8 256.7 523.8 256.7 524.2 256 524.2 255.1 523.3 254.2L499.7 232.7 499.1 221.6 507.1 228.8C508.2 229.4 509.4 229.6 510 228.5 510.3 228.7 510.5 228.3 510.5 228.3 510.9 227.6 510.5 226.5 510 225.8L498.8 216 498.4 204.6 508.4 209.7 512.9 223.7C513.2 224.8 514.7 225.5 515.7 225.2 516.5 224.6 517 223.6 517 222.7L513.4 212.3 523.7 217.6 533.4 247.7C533.7 248.8 534.8 249.3 535.9 249 537 248.6 537.5 247.6 537.2 246.5L528.7 220.1 541.1 226.5 544.8 237.8C545.1 238.9 546.2 239.4 547.3 239.1S548.9 237.7 548.5 236.6L546.1 229.1 555 233.6C556.1 234.2 557.1 233.8 557.7 232.7 558.2 231.7 557.9 230.6 556.8 230.1L547.9 225.5 555.6 222.7C556.2 222.5 556.7 222.4 556.9 222 557.1 221.7 557.1 220.8 556.9 220.2 556.6 219.1 555.5 218.6 554.4 218.9L542.9 222.9 530.5 216.5 557.1 207.7C557.6 207.5 558.1 207.4 558.3 207 558.5 206.6 558.5 205.7 558.3 205.2 558 204.1 556.9 203.6 555.8 203.9L525.5 214 515.2 208.7 525.8 205.6C526.3 205.4 526.7 204.7 526.9 204.3 527 204 527.2 203.6 527 203.1 526.7 202 525.3 201.3 524.6 201.8L510.2 206.1 500.2 201 509.8 194.7 524.2 198.1C525.1 198.1 526.2 197.7 526.6 197 526.8 196.7 526.8 196.7 526.4 196.5 526.9 195.4 526.2 194.1 525 194L514.5 191.7 524 185.4 555.4 192.5C556.3 192.5 557 192 557.4 191.2 557.6 190.9 557.6 190.9 557.6 190.9 557.8 189.6 557.4 188.6 556.2 188.4L528.7 182.4 540.6 175 552.4 177.4C553.6 177.6 554.3 177.1 554.7 176.4 554.7 176.4 554.9 176 554.9 176 555.1 174.8 554.2 173.9 553.5 173.5L545.3 172 553.9 166.5C554.1 166.2 554.3 165.8 554.4 165.5 554.6 165.1 554.6 164.2 554.5 163.7 553.6 162.8 552.5 162.2 551.6 163.1L543 168.6 544.8 160.5C545 159.3 544.1 158.4 543.4 158 542.2 157.8 541.3 158.7 540.7 159.8L538.3 171.5 526.8 179.1 532.6 152C532.8 150.7 532.1 149.5 531.2 149.5 529.9 149.3 528.8 149.6 528.7 150.9Z" fill="rgba(165, 9, 9, 0.39)"></path>
        <path d="M31.1 481.3L52.6 465.9 59.8 466.9 65.6 482.1 61 488 34.6 490.6C34.3 490.7 34.3 490.7 34 490.8 33.4 491 32.9 491.6 33 492.6 33.3 493.5 33.8 494 34.8 493.9L57.9 491.6 50.7 500.5 40.5 501.7C40.5 501.7 40.2 501.8 40.2 501.8 39.6 502 39.2 502.5 39.2 503.5 39.1 504.3 40.1 504.9 41.1 504.9L47.8 504.4 42.4 510.9C41.9 511.4 41.9 512.4 42.6 513.2S44.4 513.6 45.2 512.9L50.3 506.5 51.1 513.1C51.1 514.1 52 514.7 53.1 514.7 53.7 514.5 54.4 513.8 54.4 512.8L53.2 502.6 60.8 493.6 63.1 516.7C63.1 517.7 64.1 518.4 64.8 518.4 65.7 518.1 66.4 517.5 66.4 516.4L63.5 490.1 68.5 484.2 84.2 486.7 86.9 493.9 76.3 518.1C75.9 519 76.3 519.9 77.1 520.2S78.8 520.3 79.2 519.4L88.5 498.1 92.7 509.1 88.7 518.2C88.3 519 88.6 519.9 89.6 520.6S91.3 520.6 91.7 519.8L94.3 513.3 97.4 521.4C97.8 522.3 98.9 522.5 99.8 522.2 100.7 521.9 101 521 100.7 520.1L97.6 512.1 103.8 514.8C104.8 515.5 105.6 515.2 105.9 514 106.3 513.2 105.9 512.3 105.1 511.9L96 507.9 91.8 496.8 113 506.5C113.8 506.9 115 506.4 115.4 505.6S115.4 503.9 114.6 503.5L90.2 492.6 87.4 485.5 97.7 473 105.1 474.3 120.5 495.8C121.2 496.6 122.2 496.5 123.1 496.2 123.8 495.5 123.8 494.5 123.5 493.6L109.8 474.9 121.1 476.7 127 485.1C127.7 485.8 128.7 485.8 129.6 485.5 130.1 484.9 130.3 483.8 129.7 483L125.9 477.6 134.3 478.9C135 478.9 135.8 478.3 136.1 477.5 136.1 476.5 135.4 475.7 134.7 475.6L126.4 474.4 132 470.2C132.4 469.6 132.7 468.5 132.2 468 131.8 467.1 131.1 467.1 130.2 467.4 130.2 467.4 129.9 467.5 129.9 467.5L121.6 473.4 110.2 471.6 129 457.9C129.8 457.3 130.2 456.5 129.5 455.7 128.9 454.9 128.2 454.8 127.6 455.1 127.3 455.2 127.3 455.2 127.3 455.2L105.6 471 98.2 469.7 92.4 454.5 97.1 448.9 123.7 445.9C124.4 446 125.1 445 125.2 444.3 125.1 443.3 124.2 442.6 123.2 442.7L100.1 445 107.3 436.1 117.5 434.9C118.5 434.9 119.3 434.2 118.9 433.4 118.9 432.3 117.9 431.7 117.2 431.6L110.4 432.5 115.8 426C116.1 425.2 116.1 424.2 115.5 423.4 115 423.2 114.3 423.1 113.7 423.3 113.4 423.5 113.4 423.5 113.2 423.9L107.9 430.4 107 423.5C106.9 422.5 106.1 422.2 105.4 422.1 105.1 422.2 105.1 422.2 104.8 422.3 104.2 422.5 103.7 423.1 103.6 423.8L104.8 434 97.6 442.9 95.2 419.8C94.9 418.9 94.3 418.1 93.4 418.5 93 418.3 93 418.3 92.7 418.4 92.1 418.6 91.7 419.4 91.6 420.1L94.6 446.8 89.9 452.3 73.9 449.9 71.2 443 82.1 418.6C82.5 417.8 82 416.6 81.2 416.2S79.2 416.3 78.8 417.2L69.5 438.5 65.4 427.8 69.4 418.4C69.7 417.5 69.4 416.7 68.6 416.3 67.7 415.9 66.8 416.3 66.5 417.1L63.7 423.3 60.6 415.2C60.4 414.6 59.4 413.9 58.5 414.3 57.6 414.6 57.1 415.9 57.3 416.5L60.4 424.5 54.2 421.8C53.8 421.6 53.4 421.4 53.1 421.5 52.5 421.7 52.3 422.2 52.1 422.6 51.7 423.4 52.1 424.3 52.9 424.7L62.1 429 66.2 439.8 45 430.1C44.6 429.9 44.3 430 43.7 430.2 43.4 430.3 43.1 430.4 43 430.9 42.6 431.7 43 432.9 43.9 433.3L67.9 444.3 70.6 451.1 60.6 463.5 53 462.6 37.5 440.8C37 440.3 36.2 440 35.6 440.2 35.3 440.3 35.3 440.3 35.4 440.6 34.5 441 34.2 442.1 34.9 442.9L48.5 461.6 36.9 459.9 31 451.5C30.5 451.1 29.7 451 29.1 451.2 29.1 451.2 28.8 451.3 28.8 451.3 28 451.7 27.7 452.8 28.3 453.6L32.5 459.2 24.2 457.9C23.8 457.7 23.5 457.8 23.2 458 22.6 458.2 22.1 458.7 22.2 459 21.9 460.1 22.6 460.9 23.4 461.3L31.8 462.5 26.4 466.3C25.6 467 25.3 468.1 26 468.9 26.5 469.4 27.6 469.6 28.1 469.1L36.4 463.1 47.8 465 29 478.7C28.2 479.3 28.3 480.3 28.6 481.2 29.1 481.7 30.3 482 31.1 481.3ZM68.2 479.1L63.8 467.4 63.1 465.6 64.2 464.2 71.9 454.7 73.4 453.1 75.2 453.5 87.3 455.4 89.1 455.7 89.8 457.5 94.2 469.2 94.9 471 93.8 472.4 86.1 481.9 84.9 483.3 82.8 483.1 70.8 481.2 68.9 480.9 68.2 479.1Z" fill="rgba(165, 9, 9, 0.39)"></path>
        <path d="M507.1 539.2L461.4 547.4 427.6 523.5 465.2 506.1 508.7 522.5C508.7 522.5 509.2 522.6 509.2 522.6 510.3 522.7 511.6 521.7 512.2 520.6 512.9 519 512 517.2 510.3 517L472.3 502.8 490.5 494.4 507.3 500.5C507.3 500.5 507.9 500.5 507.9 500.5 509 500.6 510.2 499.6 510.9 498.5 511.6 496.9 510.6 495.1 509 495L497.6 490.6 511.1 484.5C512.2 484 513 481.9 512.5 480.7 512.1 479 509.9 478.8 508.7 479.2L495.2 485.3 499.7 473.9C500.4 472.3 499.4 470.5 497.8 470.3 496.1 469.6 494.4 470.6 494.2 472.3L488.1 489.1 470 497 484.2 459C484.9 457.3 483.9 455.6 482.3 455.4 480.6 454.7 478.9 455.6 478.7 457.3L462.3 500.8 424.7 518.1 428.6 476.3 464.5 446.4C465.8 445.4 465.9 443.8 464.9 442.5 463.9 441.3 462.2 441.2 461 442.2L429.3 468.5 431.2 448.4 444.6 437.3C445.8 436.3 446 434.6 444.9 433.4 443.9 432.2 442.3 432 441 433L431.9 440.6 433.3 425C434.1 423.4 432.5 422.1 430.8 422 429.1 421.8 427.9 422.8 427.8 424.5L426.4 439 418.8 429.8C417.8 428.6 416.2 428.5 414.9 429.5S413.6 432.2 414.6 433.4L425.7 446.8 423.8 466.9 397.5 435.2C396.5 434 394.8 433.8 393.6 434.8 392.4 435.8 392.3 437.5 393.3 438.7L423.1 474.7 419.3 515.9 385.5 492 377.8 447.4C377.4 445.7 375.8 445 374.1 444.8 372.4 445.2 371.7 446.9 371.6 448.5L378.5 488.5 362.2 476.9 359.3 459.2C358.9 457.5 357.3 456.8 355.6 456.6 353.9 457 353.2 458.6 353.1 459.7L355.3 471.8 343.2 463.3C342.1 462.7 339.9 462.5 339.2 464.1 338.5 465.7 338.3 467.4 339.9 468.1L352.1 476.5 340.1 478.8C338.3 479.2 337.6 480.8 337.5 481.9 338 483.1 339 484.3 340.1 484.4 340.1 484.4 340.7 484.5 340.7 484.5L358.4 481.6 374.7 493.2 334.7 500.2C333 500.6 332.3 502.3 332.2 503.4 332.6 504.5 333.6 505.8 334.7 505.9 334.7 505.9 335.3 505.9 335.3 505.9L381.1 497.8 414.8 521.7 377.2 539 333.8 522.6C332.1 521.9 330.4 522.9 330.2 524.6 329.5 526.2 330.5 528 332.1 528.1L370.2 542.3 352 550.8 335.1 544.7C333.5 544 331.7 544.9 331.5 546.6 330.8 548.2 331.8 550 333.5 550.2L344.9 554.6 331.4 560.7C330.2 561.1 329.4 563.3 329.9 564.5 330.3 565.6 331.4 566.3 332.5 566.4 333.1 566.4 333.6 566.5 334.2 566L347.7 559.9 343.3 571.3C342.6 572.9 343.6 574.7 345.2 574.9 345.2 574.9 345.8 574.9 345.8 574.9 346.9 575 348.1 574 348.8 573L354.8 556.1 373.1 547.6 358.9 585.7C358.1 587.3 359.1 589.1 360.8 589.2 360.8 589.2 361.3 589.3 361.3 589.3 362.4 589.4 363.7 588.4 364.3 587.3L380.7 543.9 418.3 526.5 414.5 567.8 378.6 597.6C377.3 598.7 377.2 600.3 378.2 601.5 379.2 602.8 380.9 602.9 382.1 601.9L413.7 576.2 411.9 596.2 398.5 607.4C397.2 608.4 397.1 610 398.1 611.3S400.8 612.6 402 611.6L411.1 604 409.8 618.5C409.6 620.2 410.7 621.4 412.3 621.6 414 621.7 415.2 620.7 415.4 619.1L416.7 604.6 424.3 613.7C424.8 614.3 425.3 614.9 426.4 615S428.2 614.6 428.8 614.1C430 613.1 430.1 611.4 429.1 610.2L418 596.8 419.9 576.7 446.2 608.4C446.7 609 447.2 609.6 448.3 609.7 448.9 609.8 450 609.3 450.6 608.8 451.8 607.8 452 606.1 451 604.9L421.1 569 425 527.7 458.7 551.6 466.9 597.4C467.3 598.6 468.3 599.8 469.5 599.9 469.5 599.9 470 599.9 470 599.9 471.7 599.5 472.4 597.9 472.6 596.8L465.6 556.8 481.9 568.4 484.8 586.1C485.2 587.3 486.3 588.5 487.4 588.6 487.4 588.6 487.9 588.6 487.9 588.6 489.7 588.2 490.4 586.6 490.5 585.5L488.2 573.5 500.4 581.9C500.9 582 501.4 582.6 502 582.6 503.1 582.7 504.3 582.3 504.9 581.2 505.6 579.6 505.8 577.9 504.2 577.2L492 568.8 504 566.5C505.8 566.1 506.5 564.5 506.6 563.4 506.2 561.7 504.6 560.9 503.4 560.8L485.7 563.7 469.4 552.1 509.4 545.1C511.1 544.7 511.8 543.1 511.9 541.9 510.4 540.1 508.8 538.8 507.1 539.2Z" fill="rgba(165, 9, 9, 0.39)"></path>
    </g>
    <defs>
        <mask id="SvgjsMask1016">
            <rect width="1440" height="560" fill="#ffffff"></rect>
        </mask>
        <filter id="SvgjsFilter1017">
            <feGaussianBlur stdDeviation="1"></feGaussianBlur>
        </filter>
    </defs>
</svg>